<?xml version="1.0" encoding="utf-8"?>
<!-- Generator: Adobe Illustrator 27.5.0, SVG Export Plug-In . SVG Version: 6.00 Build 0)  -->
<svg version="1.1" xmlns="http://www.w3.org/2000/svg" xmlns:xlink="http://www.w3.org/1999/xlink" x="0px" y="0px"
	 viewBox="0 0 750 500" style="enable-background:new 0 0 750 500;" xml:space="preserve">
<g id="BACKGROUND">
	<rect style="fill:#FFFFFF;" width="750" height="500"/>
</g>
<g id="OBJECT">
	<g>
		<g>
			<path style="fill:#FBEED1;" d="M69.732,259.368c0.09,41.008,21.949,81.346,56.256,103.812
				c50.479,33.056,116.804,25.544,174.388,43.571c41.434,12.972,78.207,39.22,120.611,48.546
				c44.748,9.842,91.851-0.231,134.05-18.078c55.798-23.598,109.148-65.967,121.982-125.175c6.401-29.53,2.095-60.203-2.232-90.108
				c-6.654-45.992-14.013-93.832-40.495-132.019c-8.401-12.113-19.116-23.341-32.943-28.45c-13.828-5.108-31.197-2.66-40.466,8.803
				c-10.125,12.52-8.548,32.041-19.784,43.574c-9.901,10.163-26.702,10.29-39.744,4.701c-13.041-5.589-23.477-15.722-34.484-24.676
				C417.43,53.646,350.801,35.321,287.745,44.602c-58.803,8.655-106.954,40.269-146.65,83.188
				C107.309,164.319,69.618,206.919,69.732,259.368z"/>
			<path style="fill:#FBEED1;" d="M530.662,88.539c-4.252,4.656-10.326,7.397-16.549,8.411
				c-11.689,1.905-24.283-2.329-32.185-11.151c-7.901-8.822-10.707-22.014-6.746-33.176c3.96-11.161,14.664-19.71,26.46-20.763
				c10.825-0.966,22.047,5.201,29.699,12.576c6.448,6.215,7.001,15.761,6.6,24.245C537.603,75.811,535.57,83.165,530.662,88.539z"/>
		</g>
		<g>
			<g>
				<g>
					<path style="fill:#454F6B;" d="M671.235,376.475L671.235,376.475c0-1.372-1.113-2.485-2.485-2.485H239.34
						c-1.372,0-2.485,1.113-2.485,2.485l0,0c0,1.372,1.113,2.485,2.485,2.485h15.643c1.372,0,2.485,1.113,2.485,2.485l0,0
						c0,1.372-1.113,2.485-2.485,2.485h-5.59c-1.372,0-2.485,1.112-2.485,2.485l0,0c0,1.372,1.113,2.485,2.485,2.485h409.304
						c1.372,0,2.485-1.113,2.485-2.485l0,0c0-1.372-1.112-2.485-2.485-2.485h-5.59c-1.372,0-2.485-1.113-2.485-2.485l0,0
						c0-1.372,1.112-2.485,2.485-2.485h15.643C670.122,378.96,671.235,377.848,671.235,376.475z"/>
					<g>
						<g>
							<g>
								<polygon style="fill:#D0F7FC;" points="318.156,154.206 356.91,373.99 641.755,373.99 603.001,154.206 								"/>
								<polygon style="fill:#CC6164;" points="595.696,112.773 310.85,112.773 318.156,154.206 603.001,154.206 								"/>
								<polygon style="fill:#96E4FF;" points="504.985,172.9 422.765,172.9 420.644,160.872 502.864,160.872 								"/>
								<g>
									<path style="fill:#E68799;" d="M369.118,214.462H345.81c-2.138,0-4.176-1.733-4.553-3.87l-4.11-23.308
										c-0.377-2.137,1.05-3.87,3.188-3.87h23.308c2.138,0,4.176,1.733,4.553,3.87l4.11,23.308
										C372.682,212.729,371.255,214.462,369.118,214.462z"/>
									<path style="fill:#96E4FF;" d="M407.031,214.462h-23.308c-2.137,0-4.176-1.733-4.553-3.87l-4.11-23.308
										c-0.377-2.137,1.05-3.87,3.188-3.87h23.308c2.138,0,4.176,1.733,4.553,3.87l4.11,23.308
										C410.596,212.729,409.168,214.462,407.031,214.462z"/>
									<path style="fill:#96E4FF;" d="M444.944,214.462h-23.308c-2.137,0-4.176-1.733-4.553-3.87l-4.11-23.308
										c-0.377-2.137,1.05-3.87,3.188-3.87h23.308c2.137,0,4.176,1.733,4.553,3.87l4.11,23.308
										C448.509,212.729,447.082,214.462,444.944,214.462z"/>
									<path style="fill:#96E4FF;" d="M482.858,214.462h-23.308c-2.138,0-4.176-1.733-4.553-3.87l-4.11-23.308
										c-0.377-2.137,1.05-3.87,3.188-3.87h23.308c2.137,0,4.176,1.733,4.553,3.87l4.11,23.308
										C486.422,212.729,484.995,214.462,482.858,214.462z"/>
									<path style="fill:#96E4FF;" d="M520.771,214.462h-23.308c-2.138,0-4.176-1.733-4.553-3.87l-4.11-23.308
										c-0.377-2.137,1.05-3.87,3.188-3.87h23.308c2.137,0,4.176,1.733,4.553,3.87l4.11,23.308
										C524.336,212.729,522.908,214.462,520.771,214.462z"/>
									<path style="fill:#96E4FF;" d="M558.684,214.462h-23.308c-2.137,0-4.176-1.733-4.553-3.87l-4.11-23.308
										c-0.377-2.137,1.05-3.87,3.188-3.87h23.308c2.138,0,4.176,1.733,4.553,3.87l4.11,23.308
										C562.249,212.729,560.822,214.462,558.684,214.462z"/>
									<path style="fill:#96E4FF;" d="M596.597,214.462h-23.308c-2.137,0-4.176-1.733-4.553-3.87l-4.11-23.308
										c-0.377-2.137,1.05-3.87,3.188-3.87h23.308c2.138,0,4.176,1.733,4.553,3.87l4.11,23.308
										C600.162,212.729,598.735,214.462,596.597,214.462z"/>
								</g>
								<g>
									<path style="fill:#E68799;" d="M375.683,251.699h-23.308c-2.137,0-4.176-1.733-4.553-3.87l-4.11-23.308
										c-0.377-2.137,1.05-3.87,3.188-3.87h23.308c2.138,0,4.176,1.733,4.553,3.87l4.11,23.308
										C379.248,249.966,377.821,251.699,375.683,251.699z"/>
									<path style="fill:#96E4FF;" d="M413.597,251.699h-23.308c-2.137,0-4.176-1.733-4.553-3.87l-4.11-23.308
										c-0.377-2.137,1.05-3.87,3.188-3.87h23.308c2.137,0,4.176,1.733,4.553,3.87l4.11,23.308
										C417.161,249.966,415.734,251.699,413.597,251.699z"/>
									<path style="fill:#96E4FF;" d="M451.51,251.699h-23.308c-2.138,0-4.176-1.733-4.553-3.87l-4.11-23.308
										c-0.377-2.137,1.05-3.87,3.188-3.87h23.308c2.137,0,4.176,1.733,4.553,3.87l4.11,23.308
										C455.075,249.966,453.647,251.699,451.51,251.699z"/>
									<path style="fill:#96E4FF;" d="M489.423,251.699h-23.308c-2.138,0-4.176-1.733-4.553-3.87l-4.11-23.308
										c-0.377-2.137,1.05-3.87,3.188-3.87h23.308c2.137,0,4.176,1.733,4.553,3.87l4.11,23.308
										C492.988,249.966,491.561,251.699,489.423,251.699z"/>
									<path style="fill:#96E4FF;" d="M527.337,251.699h-23.308c-2.137,0-4.176-1.733-4.553-3.87l-4.11-23.308
										c-0.377-2.137,1.05-3.87,3.188-3.87h23.308c2.138,0,4.176,1.733,4.553,3.87l4.11,23.308
										C530.901,249.966,529.474,251.699,527.337,251.699z"/>
									<path style="fill:#96E4FF;" d="M565.25,251.699h-23.308c-2.137,0-4.176-1.733-4.553-3.87l-4.11-23.308
										c-0.377-2.137,1.05-3.87,3.188-3.87h23.308c2.137,0,4.176,1.733,4.553,3.87l4.11,23.308
										C568.815,249.966,567.388,251.699,565.25,251.699z"/>
									<path style="fill:#96E4FF;" d="M603.163,251.699h-23.308c-2.138,0-4.176-1.733-4.553-3.87l-4.11-23.308
										c-0.377-2.137,1.05-3.87,3.188-3.87h23.308c2.137,0,4.176,1.733,4.553,3.87l4.11,23.308
										C606.728,249.966,605.301,251.699,603.163,251.699z"/>
								</g>
								<g>
									<path style="fill:#E68799;" d="M382.249,288.935h-23.308c-2.138,0-4.176-1.733-4.553-3.87l-4.11-23.308
										c-0.377-2.137,1.05-3.87,3.188-3.87h23.308c2.137,0,4.176,1.733,4.553,3.87l4.11,23.308
										C385.814,287.203,384.387,288.935,382.249,288.935z"/>
									<path style="fill:#96E4FF;" d="M420.163,288.935h-23.308c-2.137,0-4.176-1.733-4.553-3.87l-4.11-23.308
										c-0.377-2.137,1.05-3.87,3.188-3.87h23.308c2.137,0,4.176,1.733,4.553,3.87l4.11,23.308
										C423.727,287.203,422.3,288.935,420.163,288.935z"/>
									<path style="fill:#96E4FF;" d="M458.076,288.935h-23.308c-2.137,0-4.176-1.733-4.553-3.87l-4.11-23.308
										c-0.377-2.137,1.05-3.87,3.188-3.87h23.308c2.137,0,4.176,1.733,4.553,3.87l4.11,23.308
										C461.641,287.203,460.213,288.935,458.076,288.935z"/>
									<path style="fill:#96E4FF;" d="M495.989,288.935h-23.308c-2.137,0-4.176-1.733-4.553-3.87l-4.11-23.308
										c-0.377-2.137,1.05-3.87,3.188-3.87h23.308c2.138,0,4.176,1.733,4.553,3.87l4.11,23.308
										C499.554,287.203,498.127,288.935,495.989,288.935z"/>
									<path style="fill:#96E4FF;" d="M533.902,288.935h-23.308c-2.137,0-4.176-1.733-4.553-3.87l-4.11-23.308
										c-0.377-2.137,1.05-3.87,3.188-3.87h23.308c2.137,0,4.176,1.733,4.553,3.87l4.11,23.308
										C537.467,287.203,536.04,288.935,533.902,288.935z"/>
									<path style="fill:#96E4FF;" d="M571.816,288.935h-23.308c-2.138,0-4.176-1.733-4.553-3.87l-4.11-23.308
										c-0.377-2.137,1.05-3.87,3.188-3.87h23.308c2.137,0,4.176,1.733,4.553,3.87l4.11,23.308
										C575.38,287.203,573.953,288.935,571.816,288.935z"/>
									<path style="fill:#96E4FF;" d="M609.729,288.935h-23.308c-2.138,0-4.176-1.733-4.553-3.87l-4.11-23.308
										c-0.377-2.137,1.05-3.87,3.188-3.87h23.308c2.138,0,4.176,1.733,4.553,3.87l4.11,23.308
										C613.294,287.203,611.867,288.935,609.729,288.935z"/>
								</g>
								<g>
									<path style="fill:#E68799;" d="M388.815,326.172h-23.308c-2.137,0-4.176-1.733-4.553-3.87l-4.11-23.308
										c-0.377-2.137,1.05-3.87,3.188-3.87h23.308c2.137,0,4.176,1.733,4.553,3.87l4.11,23.308
										C392.38,324.439,390.952,326.172,388.815,326.172z"/>
									<path style="fill:#96E4FF;" d="M426.728,326.172H403.42c-2.137,0-4.176-1.733-4.553-3.87l-4.11-23.308
										c-0.377-2.137,1.05-3.87,3.188-3.87h23.308c2.138,0,4.176,1.733,4.553,3.87l4.11,23.308
										C430.293,324.439,428.866,326.172,426.728,326.172z"/>
									<path style="fill:#96E4FF;" d="M464.642,326.172h-23.308c-2.137,0-4.176-1.733-4.553-3.87l-4.11-23.308
										c-0.377-2.137,1.05-3.87,3.188-3.87h23.308c2.137,0,4.176,1.733,4.553,3.87l4.11,23.308
										C468.206,324.439,466.779,326.172,464.642,326.172z"/>
									<path style="fill:#96E4FF;" d="M502.555,326.172h-23.308c-2.138,0-4.176-1.733-4.553-3.87l-4.11-23.308
										c-0.377-2.137,1.05-3.87,3.188-3.87h23.308c2.137,0,4.176,1.733,4.553,3.87l4.11,23.308
										C506.12,324.439,504.693,326.172,502.555,326.172z"/>
									<path style="fill:#96E4FF;" d="M540.468,326.172H517.16c-2.138,0-4.176-1.733-4.553-3.87l-4.11-23.308
										c-0.377-2.137,1.05-3.87,3.188-3.87h23.308c2.137,0,4.176,1.733,4.553,3.87l4.11,23.308
										C544.033,324.439,542.606,326.172,540.468,326.172z"/>
									<path style="fill:#96E4FF;" d="M578.382,326.172h-23.308c-2.137,0-4.176-1.733-4.553-3.87l-4.11-23.308
										c-0.377-2.137,1.05-3.87,3.188-3.87h23.308c2.138,0,4.176,1.733,4.553,3.87l4.11,23.308
										C581.946,324.439,580.519,326.172,578.382,326.172z"/>
									<path style="fill:#96E4FF;" d="M616.295,326.172h-23.308c-2.137,0-4.176-1.733-4.553-3.87l-4.11-23.308
										c-0.377-2.137,1.05-3.87,3.188-3.87h23.308c2.137,0,4.176,1.733,4.553,3.87l4.11,23.308
										C619.86,324.439,618.432,326.172,616.295,326.172z"/>
								</g>
								<g>
									<path style="fill:#E68799;" d="M395.381,363.409h-23.308c-2.137,0-4.176-1.733-4.553-3.87l-4.11-23.308
										c-0.377-2.137,1.05-3.87,3.188-3.87h23.308c2.138,0,4.176,1.733,4.553,3.87l4.11,23.308
										C398.946,361.676,397.518,363.409,395.381,363.409z"/>
									<path style="fill:#96E4FF;" d="M433.294,363.409h-23.308c-2.137,0-4.176-1.733-4.553-3.87l-4.11-23.308
										c-0.377-2.137,1.05-3.87,3.188-3.87h23.308c2.137,0,4.176,1.733,4.553,3.87l4.11,23.308
										C436.859,361.676,435.432,363.409,433.294,363.409z"/>
									<path style="fill:#96E4FF;" d="M471.208,363.409H447.9c-2.138,0-4.176-1.733-4.553-3.87l-4.11-23.308
										c-0.377-2.137,1.05-3.87,3.188-3.87h23.308c2.137,0,4.176,1.733,4.553,3.87l4.11,23.308
										C474.772,361.676,473.345,363.409,471.208,363.409z"/>
									<path style="fill:#96E4FF;" d="M509.121,363.409h-23.308c-2.138,0-4.176-1.733-4.553-3.87l-4.11-23.308
										c-0.377-2.137,1.05-3.87,3.188-3.87h23.308c2.138,0,4.176,1.733,4.553,3.87l4.11,23.308
										C512.685,361.676,511.258,363.409,509.121,363.409z"/>
									<path style="fill:#96E4FF;" d="M547.034,363.409h-23.308c-2.137,0-4.176-1.733-4.553-3.87l-4.11-23.308
										c-0.377-2.137,1.05-3.87,3.188-3.87h23.308c2.138,0,4.176,1.733,4.553,3.87l4.11,23.308
										C550.599,361.676,549.172,363.409,547.034,363.409z"/>
									<path style="fill:#96E4FF;" d="M584.948,363.409h-23.308c-2.137,0-4.176-1.733-4.553-3.87l-4.11-23.308
										c-0.377-2.137,1.05-3.87,3.188-3.87h23.308c2.137,0,4.176,1.733,4.553,3.87l4.11,23.308
										C588.512,361.676,587.085,363.409,584.948,363.409z"/>
									<path style="fill:#96E4FF;" d="M622.861,363.409h-23.308c-2.138,0-4.176-1.733-4.553-3.87l-4.11-23.308
										c-0.377-2.137,1.05-3.87,3.188-3.87h23.308c2.137,0,4.176,1.733,4.553,3.87l4.11,23.308
										C626.425,361.676,624.998,363.409,622.861,363.409z"/>
								</g>
							</g>
							<g>
								<g>
									<path style="fill:#422C4F;" d="M343.603,135.908c0.325,1.844-0.906,3.339-2.751,3.339s-3.603-1.495-3.928-3.339
										c-0.325-1.844,0.906-3.339,2.751-3.339C341.519,132.569,343.277,134.064,343.603,135.908z"/>
									<path style="fill:#C7D2D7;" d="M340.263,94.42c-7.336,0-13.233,7.824-14.293,18.352h4.921
										c0.925-7.581,4.841-13.468,9.372-13.468c5.193,0,9.579,7.732,9.579,16.885c0,8.538-3.817,15.837-8.545,16.78
										c-0.341,0.068-0.685,0.105-1.034,0.105c-0.582,0-1.152-0.102-1.708-0.287c-1.188,0.472-1.884,1.686-1.631,3.121
										c0.112,0.632,0.4,1.217,0.795,1.721c0.825,0.212,1.674,0.329,2.545,0.329c1.112,0,2.19-0.186,3.225-0.528
										c6.507-2.151,11.238-10.709,11.238-21.241C354.726,103.982,348.373,94.42,340.263,94.42z"/>
								</g>
								<g>
									<path style="fill:#422C4F;" d="M382.186,135.908c0.325,1.844-0.906,3.339-2.751,3.339c-1.844,0-3.603-1.495-3.928-3.339
										c-0.325-1.844,0.906-3.339,2.751-3.339S381.861,134.064,382.186,135.908z"/>
									<path style="fill:#C7D2D7;" d="M378.846,94.42c-7.336,0-13.233,7.824-14.292,18.352h4.921
										c0.925-7.581,4.841-13.468,9.372-13.468c5.193,0,9.579,7.732,9.579,16.885c0,8.538-3.817,15.837-8.545,16.78
										c-0.341,0.068-0.686,0.105-1.035,0.105c-0.581,0-1.152-0.102-1.708-0.287c-1.188,0.472-1.884,1.686-1.631,3.121
										c0.112,0.632,0.4,1.217,0.795,1.721c0.825,0.212,1.674,0.329,2.545,0.329c1.113,0,2.19-0.186,3.225-0.528
										c6.507-2.151,11.238-10.709,11.238-21.241C393.309,103.982,386.956,94.42,378.846,94.42z"/>
								</g>
								<g>
									<path style="fill:#422C4F;" d="M420.769,135.908c0.325,1.844-0.906,3.339-2.751,3.339s-3.603-1.495-3.928-3.339
										c-0.325-1.844,0.906-3.339,2.751-3.339C418.685,132.569,420.443,134.064,420.769,135.908z"/>
									<path style="fill:#C7D2D7;" d="M417.429,94.42c-7.336,0-13.233,7.824-14.292,18.352h4.921
										c0.925-7.581,4.841-13.468,9.372-13.468c5.193,0,9.579,7.732,9.579,16.885c0,8.538-3.817,15.837-8.545,16.78
										c-0.341,0.068-0.686,0.105-1.035,0.105c-0.581,0-1.152-0.102-1.708-0.287c-1.188,0.472-1.884,1.686-1.631,3.121
										c0.112,0.632,0.4,1.217,0.795,1.721c0.825,0.212,1.674,0.329,2.545,0.329c1.113,0,2.19-0.186,3.225-0.528
										c6.507-2.151,11.238-10.709,11.238-21.241C431.892,103.982,425.539,94.42,417.429,94.42z"/>
								</g>
								<g>
									<path style="fill:#422C4F;" d="M459.352,135.908c0.325,1.844-0.906,3.339-2.751,3.339c-1.844,0-3.603-1.495-3.928-3.339
										c-0.325-1.844,0.906-3.339,2.75-3.339S459.027,134.064,459.352,135.908z"/>
									<path style="fill:#C7D2D7;" d="M456.012,94.42c-7.336,0-13.233,7.824-14.292,18.352h4.921
										c0.925-7.581,4.841-13.468,9.372-13.468c5.193,0,9.579,7.732,9.579,16.885c0,8.538-3.817,15.837-8.545,16.78
										c-0.341,0.068-0.686,0.105-1.035,0.105c-0.581,0-1.152-0.102-1.708-0.287c-1.188,0.472-1.884,1.686-1.631,3.121
										c0.112,0.632,0.4,1.217,0.795,1.721c0.825,0.212,1.674,0.329,2.545,0.329c1.112,0,2.19-0.186,3.225-0.528
										c6.507-2.151,11.238-10.709,11.238-21.241C470.475,103.982,464.122,94.42,456.012,94.42z"/>
								</g>
								<g>
									<path style="fill:#422C4F;" d="M497.935,135.908c0.325,1.844-0.906,3.339-2.75,3.339s-3.603-1.495-3.928-3.339
										c-0.325-1.844,0.906-3.339,2.751-3.339C495.851,132.569,497.61,134.064,497.935,135.908z"/>
									<path style="fill:#C7D2D7;" d="M494.595,94.42c-7.336,0-13.233,7.824-14.292,18.352h4.92
										c0.925-7.581,4.841-13.468,9.372-13.468c5.193,0,9.579,7.732,9.579,16.885c0,8.538-3.817,15.837-8.545,16.78
										c-0.341,0.068-0.686,0.105-1.035,0.105c-0.581,0-1.152-0.102-1.708-0.287c-1.188,0.472-1.884,1.686-1.631,3.121
										c0.111,0.632,0.4,1.217,0.795,1.721c0.825,0.212,1.674,0.329,2.545,0.329c1.113,0,2.19-0.186,3.225-0.528
										c6.507-2.151,11.238-10.709,11.238-21.241C509.058,103.982,502.706,94.42,494.595,94.42z"/>
								</g>
								<g>
									<path style="fill:#422C4F;" d="M536.518,135.908c0.325,1.844-0.906,3.339-2.75,3.339c-1.844,0-3.603-1.495-3.928-3.339
										c-0.325-1.844,0.906-3.339,2.75-3.339C534.434,132.569,536.193,134.064,536.518,135.908z"/>
									<path style="fill:#C7D2D7;" d="M533.178,94.42c-7.336,0-13.233,7.824-14.292,18.352h4.92
										c0.925-7.581,4.841-13.468,9.372-13.468c5.193,0,9.579,7.732,9.579,16.885c0,8.538-3.817,15.837-8.545,16.78
										c-0.341,0.068-0.686,0.105-1.035,0.105c-0.581,0-1.152-0.102-1.708-0.287c-1.188,0.472-1.884,1.686-1.631,3.121
										c0.112,0.632,0.4,1.217,0.795,1.721c0.825,0.212,1.674,0.329,2.545,0.329c1.113,0,2.19-0.186,3.225-0.528
										c6.507-2.151,11.238-10.709,11.238-21.241C547.641,103.982,541.289,94.42,533.178,94.42z"/>
								</g>
								<g>
									<path style="fill:#422C4F;" d="M575.101,135.908c0.325,1.844-0.906,3.339-2.751,3.339c-1.844,0-3.603-1.495-3.928-3.339
										c-0.325-1.844,0.906-3.339,2.75-3.339S574.776,134.064,575.101,135.908z"/>
									<path style="fill:#C7D2D7;" d="M571.762,94.42c-7.336,0-13.233,7.824-14.292,18.352h4.92
										c0.925-7.581,4.841-13.468,9.372-13.468c5.193,0,9.579,7.732,9.579,16.885c0,8.538-3.817,15.837-8.545,16.78
										c-0.341,0.068-0.685,0.105-1.034,0.105c-0.581,0-1.152-0.102-1.708-0.287c-1.188,0.472-1.884,1.686-1.631,3.121
										c0.112,0.632,0.4,1.217,0.795,1.721c0.825,0.212,1.674,0.329,2.545,0.329c1.112,0,2.19-0.186,3.225-0.528
										c6.507-2.151,11.238-10.709,11.238-21.241C586.224,103.982,579.872,94.42,571.762,94.42z"/>
								</g>
							</g>
						</g>
						<polygon style="fill:#1792AF;" points="310.85,112.773 264.79,373.99 310.85,373.99 356.91,373.99 						"/>
						<polygon style="fill:#468097;" points="310.85,112.773 301.771,164.265 338.751,373.99 356.91,373.99 						"/>
					</g>
				</g>
				<g>
					<g>
						<g>
							<path style="fill:#454F6B;" d="M287.42,420.14H137.103c-8.069,0-14.611-6.541-14.611-14.611V98.221
								c0-8.069,6.541-14.611,14.611-14.611H287.42c8.069,0,14.611,6.541,14.611,14.611v307.308
								C302.031,413.598,295.49,420.14,287.42,420.14z"/>
							<path style="fill:#454F6B;" d="M122.492,179.715L122.492,179.715c-1.463,0-2.649-1.186-2.649-2.648v-32.934
								c0-1.463,1.186-2.649,2.649-2.649l0,0V179.715z"/>
							<path style="fill:#454F6B;" d="M302.031,152.997L302.031,152.997c1.463,0,2.648,1.186,2.648,2.649v32.934
								c0,1.463-1.186,2.649-2.648,2.649l0,0V152.997z"/>
							<path style="fill:#454F6B;" d="M122.492,222.573L122.492,222.573c-1.463,0-2.649-1.186-2.649-2.649V186.99
								c0-1.463,1.186-2.649,2.649-2.649l0,0V222.573z"/>
						</g>
						<path style="fill:#96E4FF;" d="M287.42,88.481h-23.681l-4.377,13.388c-1.964,6.007-7.567,10.07-13.887,10.07h-66.428
							c-6.32,0-11.923-4.063-13.887-10.07l-4.377-13.388h-23.681c-5.379,0-9.74,4.361-9.74,9.74v307.308
							c0,5.379,4.361,9.74,9.74,9.74H287.42c5.379,0,9.74-4.361,9.74-9.74V98.221C297.16,92.842,292.8,88.481,287.42,88.481z"/>
						<g>
							<path style="fill:#402C49;" d="M219.384,100.737h-24.513c-1.434,0-2.597-1.163-2.597-2.597l0,0
								c0-1.435,1.163-2.597,2.597-2.597h24.513c1.435,0,2.598,1.163,2.598,2.597l0,0
								C221.982,99.574,220.819,100.737,219.384,100.737z"/>
							<path style="fill:#402C49;" d="M232.249,98.14c0,1.435-1.163,2.597-2.597,2.597c-1.435,0-2.597-1.163-2.597-2.597
								c0-1.435,1.163-2.597,2.597-2.597C231.087,95.542,232.249,96.705,232.249,98.14z"/>
						</g>
					</g>
					<g>
						<rect x="169.258" y="148.771" style="fill:#FFFFFF;" width="86.007" height="3.268"/>
						<rect x="183.782" y="154.458" style="fill:#FFFFFF;" width="56.959" height="3.268"/>
						
							<text transform="matrix(1 0 0 1 178.4014 144.9629)" style="fill:#FFFFFF; font-family:'Montserrat-Black'; font-size:11.285px;">CALENDAR</text>
					</g>
					<g>
						<g>
							<path style="fill:#E68799;" d="M155.699,183.253h-11.632c-1.445,0-2.617-1.172-2.617-2.617v-11.632
								c0-1.445,1.172-2.617,2.617-2.617h11.632c1.446,0,2.617,1.172,2.617,2.617v11.632
								C158.317,182.081,157.145,183.253,155.699,183.253z"/>
							<path style="fill:#FFFFFF;" d="M176.492,183.253H164.86c-1.445,0-2.617-1.172-2.617-2.617v-11.632
								c0-1.445,1.172-2.617,2.617-2.617h11.632c1.446,0,2.617,1.172,2.617,2.617v11.632
								C179.109,182.081,177.938,183.253,176.492,183.253z"/>
							<path style="fill:#FFFFFF;" d="M197.285,183.253h-11.632c-1.445,0-2.617-1.172-2.617-2.617v-11.632
								c0-1.445,1.172-2.617,2.617-2.617h11.632c1.445,0,2.617,1.172,2.617,2.617v11.632
								C199.902,182.081,198.73,183.253,197.285,183.253z"/>
							<path style="fill:#FFFFFF;" d="M218.078,183.253h-11.632c-1.445,0-2.617-1.172-2.617-2.617v-11.632
								c0-1.445,1.172-2.617,2.617-2.617h11.632c1.445,0,2.617,1.172,2.617,2.617v11.632
								C220.695,182.081,219.523,183.253,218.078,183.253z"/>
							<path style="fill:#FFFFFF;" d="M238.87,183.253h-11.632c-1.445,0-2.617-1.172-2.617-2.617v-11.632
								c0-1.445,1.172-2.617,2.617-2.617h11.632c1.445,0,2.617,1.172,2.617,2.617v11.632
								C241.488,182.081,240.316,183.253,238.87,183.253z"/>
							<path style="fill:#FFFFFF;" d="M259.663,183.253h-11.632c-1.445,0-2.617-1.172-2.617-2.617v-11.632
								c0-1.445,1.172-2.617,2.617-2.617h11.632c1.445,0,2.617,1.172,2.617,2.617v11.632
								C262.28,182.081,261.109,183.253,259.663,183.253z"/>
							<path style="fill:#FFFFFF;" d="M280.456,183.253h-11.632c-1.445,0-2.617-1.172-2.617-2.617v-11.632
								c0-1.445,1.172-2.617,2.617-2.617h11.632c1.445,0,2.617,1.172,2.617,2.617v11.632
								C283.073,182.081,281.901,183.253,280.456,183.253z"/>
						</g>
						<g>
							<path style="fill:#E68799;" d="M155.699,203.702h-11.632c-1.445,0-2.617-1.172-2.617-2.617v-11.632
								c0-1.445,1.172-2.617,2.617-2.617h11.632c1.446,0,2.617,1.172,2.617,2.617v11.632
								C158.317,202.53,157.145,203.702,155.699,203.702z"/>
							<path style="fill:#FFFFFF;" d="M176.492,203.702H164.86c-1.445,0-2.617-1.172-2.617-2.617v-11.632
								c0-1.445,1.172-2.617,2.617-2.617h11.632c1.446,0,2.617,1.172,2.617,2.617v11.632
								C179.109,202.53,177.938,203.702,176.492,203.702z"/>
							<path style="fill:#F4D071;" d="M197.285,203.702h-11.632c-1.445,0-2.617-1.172-2.617-2.617v-11.632
								c0-1.445,1.172-2.617,2.617-2.617h11.632c1.445,0,2.617,1.172,2.617,2.617v11.632
								C199.902,202.53,198.73,203.702,197.285,203.702z"/>
							<path style="fill:#FFFFFF;" d="M218.078,203.702h-11.632c-1.445,0-2.617-1.172-2.617-2.617v-11.632
								c0-1.445,1.172-2.617,2.617-2.617h11.632c1.445,0,2.617,1.172,2.617,2.617v11.632
								C220.695,202.53,219.523,203.702,218.078,203.702z"/>
							<path style="fill:#FFFFFF;" d="M238.87,203.702h-11.632c-1.445,0-2.617-1.172-2.617-2.617v-11.632
								c0-1.445,1.172-2.617,2.617-2.617h11.632c1.445,0,2.617,1.172,2.617,2.617v11.632
								C241.488,202.53,240.316,203.702,238.87,203.702z"/>
							<path style="fill:#FFFFFF;" d="M259.663,203.702h-11.632c-1.445,0-2.617-1.172-2.617-2.617v-11.632
								c0-1.445,1.172-2.617,2.617-2.617h11.632c1.445,0,2.617,1.172,2.617,2.617v11.632
								C262.28,202.53,261.109,203.702,259.663,203.702z"/>
							<path style="fill:#FFFFFF;" d="M280.456,203.702h-11.632c-1.445,0-2.617-1.172-2.617-2.617v-11.632
								c0-1.445,1.172-2.617,2.617-2.617h11.632c1.445,0,2.617,1.172,2.617,2.617v11.632
								C283.073,202.53,281.901,203.702,280.456,203.702z"/>
						</g>
						<g>
							<path style="fill:#E68799;" d="M155.699,224.151h-11.632c-1.445,0-2.617-1.172-2.617-2.617v-11.632
								c0-1.445,1.172-2.617,2.617-2.617h11.632c1.446,0,2.617,1.172,2.617,2.617v11.632
								C158.317,222.979,157.145,224.151,155.699,224.151z"/>
							<path style="fill:#FFFFFF;" d="M176.492,224.151H164.86c-1.445,0-2.617-1.172-2.617-2.617v-11.632
								c0-1.445,1.172-2.617,2.617-2.617h11.632c1.446,0,2.617,1.172,2.617,2.617v11.632
								C179.109,222.979,177.938,224.151,176.492,224.151z"/>
							<path style="fill:#FFFFFF;" d="M197.285,224.151h-11.632c-1.445,0-2.617-1.172-2.617-2.617v-11.632
								c0-1.445,1.172-2.617,2.617-2.617h11.632c1.445,0,2.617,1.172,2.617,2.617v11.632
								C199.902,222.979,198.73,224.151,197.285,224.151z"/>
							<path style="fill:#FFFFFF;" d="M218.078,224.151h-11.632c-1.445,0-2.617-1.172-2.617-2.617v-11.632
								c0-1.445,1.172-2.617,2.617-2.617h11.632c1.445,0,2.617,1.172,2.617,2.617v11.632
								C220.695,222.979,219.523,224.151,218.078,224.151z"/>
							<path style="fill:#F4D071;" d="M238.87,224.151h-11.632c-1.445,0-2.617-1.172-2.617-2.617v-11.632
								c0-1.445,1.172-2.617,2.617-2.617h11.632c1.445,0,2.617,1.172,2.617,2.617v11.632
								C241.488,222.979,240.316,224.151,238.87,224.151z"/>
							<path style="fill:#FFFFFF;" d="M259.663,224.151h-11.632c-1.445,0-2.617-1.172-2.617-2.617v-11.632
								c0-1.445,1.172-2.617,2.617-2.617h11.632c1.445,0,2.617,1.172,2.617,2.617v11.632
								C262.28,222.979,261.109,224.151,259.663,224.151z"/>
							<path style="fill:#FFFFFF;" d="M280.456,224.151h-11.632c-1.445,0-2.617-1.172-2.617-2.617v-11.632
								c0-1.445,1.172-2.617,2.617-2.617h11.632c1.445,0,2.617,1.172,2.617,2.617v11.632
								C283.073,222.979,281.901,224.151,280.456,224.151z"/>
						</g>
						<g>
							<path style="fill:#E68799;" d="M155.699,244.6h-11.632c-1.445,0-2.617-1.172-2.617-2.617V230.35
								c0-1.445,1.172-2.617,2.617-2.617h11.632c1.446,0,2.617,1.172,2.617,2.617v11.632
								C158.317,243.428,157.145,244.6,155.699,244.6z"/>
							<path style="fill:#FFFFFF;" d="M176.492,244.6H164.86c-1.445,0-2.617-1.172-2.617-2.617V230.35
								c0-1.445,1.172-2.617,2.617-2.617h11.632c1.446,0,2.617,1.172,2.617,2.617v11.632
								C179.109,243.428,177.938,244.6,176.492,244.6z"/>
							<path style="fill:#FFFFFF;" d="M197.285,244.6h-11.632c-1.445,0-2.617-1.172-2.617-2.617V230.35
								c0-1.445,1.172-2.617,2.617-2.617h11.632c1.445,0,2.617,1.172,2.617,2.617v11.632
								C199.902,243.428,198.73,244.6,197.285,244.6z"/>
							<path style="fill:#FFFFFF;" d="M218.078,244.6h-11.632c-1.445,0-2.617-1.172-2.617-2.617V230.35
								c0-1.445,1.172-2.617,2.617-2.617h11.632c1.445,0,2.617,1.172,2.617,2.617v11.632
								C220.695,243.428,219.523,244.6,218.078,244.6z"/>
							<path style="fill:#FFFFFF;" d="M238.87,244.6h-11.632c-1.445,0-2.617-1.172-2.617-2.617V230.35
								c0-1.445,1.172-2.617,2.617-2.617h11.632c1.445,0,2.617,1.172,2.617,2.617v11.632
								C241.488,243.428,240.316,244.6,238.87,244.6z"/>
							<path style="fill:#FFFFFF;" d="M259.663,244.6h-11.632c-1.445,0-2.617-1.172-2.617-2.617V230.35
								c0-1.445,1.172-2.617,2.617-2.617h11.632c1.445,0,2.617,1.172,2.617,2.617v11.632
								C262.28,243.428,261.109,244.6,259.663,244.6z"/>
							<path style="fill:#FFFFFF;" d="M280.456,244.6h-11.632c-1.445,0-2.617-1.172-2.617-2.617V230.35
								c0-1.445,1.172-2.617,2.617-2.617h11.632c1.445,0,2.617,1.172,2.617,2.617v11.632
								C283.073,243.428,281.901,244.6,280.456,244.6z"/>
						</g>
						<g>
							<path style="fill:#E68799;" d="M155.699,265.049h-11.632c-1.445,0-2.617-1.172-2.617-2.617v-11.632
								c0-1.445,1.172-2.617,2.617-2.617h11.632c1.446,0,2.617,1.172,2.617,2.617v11.632
								C158.317,263.877,157.145,265.049,155.699,265.049z"/>
							<path style="fill:#FFFFFF;" d="M176.492,265.049H164.86c-1.445,0-2.617-1.172-2.617-2.617v-11.632
								c0-1.445,1.172-2.617,2.617-2.617h11.632c1.446,0,2.617,1.172,2.617,2.617v11.632
								C179.109,263.877,177.938,265.049,176.492,265.049z"/>
							<path style="fill:#F4D071;" d="M197.285,265.049h-11.632c-1.445,0-2.617-1.172-2.617-2.617v-11.632
								c0-1.445,1.172-2.617,2.617-2.617h11.632c1.445,0,2.617,1.172,2.617,2.617v11.632
								C199.902,263.877,198.73,265.049,197.285,265.049z"/>
							<path style="fill:#B6F0FF;" d="M218.078,265.049h-11.632c-1.445,0-2.617-1.172-2.617-2.617v-11.632
								c0-1.445,1.172-2.617,2.617-2.617h11.632c1.445,0,2.617,1.172,2.617,2.617v11.632
								C220.695,263.877,219.523,265.049,218.078,265.049z"/>
							<path style="fill:#B6F0FF;" d="M238.87,265.049h-11.632c-1.445,0-2.617-1.172-2.617-2.617v-11.632
								c0-1.445,1.172-2.617,2.617-2.617h11.632c1.445,0,2.617,1.172,2.617,2.617v11.632
								C241.488,263.877,240.316,265.049,238.87,265.049z"/>
							<path style="fill:#B6F0FF;" d="M259.663,265.049h-11.632c-1.445,0-2.617-1.172-2.617-2.617v-11.632
								c0-1.445,1.172-2.617,2.617-2.617h11.632c1.445,0,2.617,1.172,2.617,2.617v11.632
								C262.28,263.877,261.109,265.049,259.663,265.049z"/>
							<path style="fill:#B6F0FF;" d="M280.456,265.049h-11.632c-1.445,0-2.617-1.172-2.617-2.617v-11.632
								c0-1.445,1.172-2.617,2.617-2.617h11.632c1.445,0,2.617,1.172,2.617,2.617v11.632
								C283.073,263.877,281.901,265.049,280.456,265.049z"/>
						</g>
					</g>
					<g>
						<path style="fill:#FFFFFF;" d="M276.439,311.068H148.084c-3.664,0-6.634-2.97-6.634-6.634V283.93
							c0-3.664,2.97-6.634,6.634-6.634h128.355c3.664,0,6.634,2.97,6.634,6.634v20.504
							C283.073,308.097,280.103,311.068,276.439,311.068z"/>
						<path style="fill:#FFFFFF;" d="M276.439,352.222H148.084c-3.664,0-6.634-2.97-6.634-6.634v-20.504
							c0-3.664,2.97-6.634,6.634-6.634h128.355c3.664,0,6.634,2.97,6.634,6.634v20.504
							C283.073,349.252,280.103,352.222,276.439,352.222z"/>
						<path style="fill:#FFFFFF;" d="M276.439,393.376H148.084c-3.664,0-6.634-2.97-6.634-6.634v-20.504
							c0-3.664,2.97-6.634,6.634-6.634h128.355c3.664,0,6.634,2.97,6.634,6.634v20.504
							C283.073,390.406,280.103,393.376,276.439,393.376z"/>
						<g>
							<path style="fill:#F4D071;" d="M152.332,287.215h-1.766l-0.312,0.81h-1.593l2.031-4.646h1.54l2.032,4.646h-1.62
								L152.332,287.215z M151.9,286.087l-0.451-1.168l-0.452,1.168H151.9z"/>
							<path style="fill:#F4D071;" d="M158.641,286.212c0,1.168-0.803,1.879-1.752,1.879c-0.398,0-0.704-0.1-0.923-0.312v1.533h-1.5
								v-4.918h1.427v0.299c0.219-0.246,0.544-0.366,0.996-0.366C157.838,284.327,158.641,285.044,158.641,286.212z
								 M157.122,286.212c0-0.471-0.259-0.716-0.591-0.716c-0.332,0-0.591,0.245-0.591,0.716s0.259,0.71,0.591,0.71
								C156.862,286.922,157.122,286.684,157.122,286.212z"/>
							<path style="fill:#F4D071;" d="M163.285,286.212c0,1.168-0.803,1.879-1.752,1.879c-0.398,0-0.704-0.1-0.923-0.312v1.533h-1.5
								v-4.918h1.427v0.299c0.219-0.246,0.544-0.366,0.996-0.366C162.482,284.327,163.285,285.044,163.285,286.212z
								 M161.765,286.212c0-0.471-0.259-0.716-0.591-0.716s-0.59,0.245-0.59,0.716s0.259,0.71,0.59,0.71
								S161.765,286.684,161.765,286.212z"/>
							<path style="fill:#F4D071;" d="M163.561,286.206c0-1.102,0.883-1.879,2.111-1.879c1.234,0,2.111,0.777,2.111,1.879
								c0,1.101-0.877,1.885-2.111,1.885C164.444,288.091,163.561,287.307,163.561,286.206z M166.263,286.206
								c0-0.471-0.259-0.71-0.59-0.71c-0.332,0-0.591,0.239-0.591,0.71s0.259,0.716,0.591,0.716
								C166.004,286.922,166.263,286.677,166.263,286.206z"/>
							<path style="fill:#F4D071;" d="M168.099,283.339c0-0.432,0.352-0.764,0.903-0.764c0.551,0,0.903,0.306,0.903,0.737
								c0,0.458-0.352,0.79-0.903,0.79C168.451,284.101,168.099,283.77,168.099,283.339z M168.252,284.394h1.5v3.631h-1.5V284.394z"
								/>
							<path style="fill:#F4D071;" d="M174.424,285.953v2.071h-1.5v-1.812c0-0.452-0.173-0.624-0.445-0.624
								c-0.305,0-0.564,0.192-0.564,0.73v1.706h-1.5v-3.631h1.427v0.358c0.286-0.285,0.671-0.425,1.095-0.425
								C173.773,284.327,174.424,284.812,174.424,285.953z"/>
							<path style="fill:#F4D071;" d="M177.747,287.899c-0.232,0.132-0.571,0.193-0.923,0.193c-1.002,0-1.586-0.471-1.586-1.474
								v-0.93h-0.498v-1.095h0.498v-1.015h1.5v1.015h0.744v1.095h-0.744v0.916c0,0.226,0.133,0.352,0.312,0.352
								c0.119,0,0.239-0.033,0.338-0.099L177.747,287.899z"/>
							<path style="fill:#F4D071;" d="M184.376,285.953v2.071h-1.5v-1.812c0-0.452-0.166-0.624-0.405-0.624
								c-0.265,0-0.471,0.18-0.471,0.664v1.772h-1.5v-1.812c0-0.452-0.153-0.624-0.405-0.624c-0.265,0-0.471,0.18-0.471,0.664v1.772
								h-1.5v-3.631h1.427v0.339c0.272-0.272,0.631-0.405,1.029-0.405c0.472,0,0.883,0.173,1.135,0.552
								c0.292-0.353,0.717-0.552,1.215-0.552C183.752,284.327,184.376,284.812,184.376,285.953z"/>
							<path style="fill:#F4D071;" d="M188.932,286.558h-2.522c0.106,0.279,0.358,0.425,0.73,0.425c0.332,0,0.518-0.086,0.757-0.266
								l0.783,0.79c-0.352,0.385-0.863,0.584-1.586,0.584c-1.334,0-2.197-0.803-2.197-1.885c0-1.102,0.883-1.879,2.058-1.879
								c1.075,0,1.998,0.651,1.998,1.879C188.952,286.313,188.939,286.451,188.932,286.558z M186.383,285.834h1.168
								c-0.06-0.305-0.279-0.484-0.584-0.484C186.656,285.35,186.443,285.529,186.383,285.834z"/>
							<path style="fill:#F4D071;" d="M193.43,285.953v2.071h-1.5v-1.812c0-0.452-0.173-0.624-0.445-0.624
								c-0.305,0-0.564,0.192-0.564,0.73v1.706h-1.5v-3.631h1.427v0.358c0.285-0.285,0.671-0.425,1.095-0.425
								C192.78,284.327,193.43,284.812,193.43,285.953z"/>
							<path style="fill:#F4D071;" d="M196.753,287.899c-0.232,0.132-0.571,0.193-0.923,0.193c-1.002,0-1.586-0.471-1.586-1.474
								v-0.93h-0.498v-1.095h0.498v-1.015h1.5v1.015h0.744v1.095h-0.744v0.916c0,0.226,0.133,0.352,0.312,0.352
								c0.119,0,0.239-0.033,0.338-0.099L196.753,287.899z"/>
							<path style="fill:#F4D071;" d="M203.747,286.744c0,0.81-0.684,1.281-1.965,1.281h-2.615v-4.646h2.482
								c1.281,0,1.878,0.511,1.878,1.214c0,0.431-0.219,0.79-0.644,1.002C203.428,285.794,203.747,286.193,203.747,286.744z
								 M200.706,284.474v0.69h0.73c0.352,0,0.511-0.119,0.511-0.345s-0.16-0.345-0.511-0.345H200.706z M202.167,286.564
								c0-0.239-0.173-0.365-0.518-0.365h-0.943v0.73h0.943C201.994,286.93,202.167,286.803,202.167,286.564z"/>
							<path style="fill:#F4D071;" d="M204.056,286.206c0-1.102,0.883-1.879,2.111-1.879c1.234,0,2.111,0.777,2.111,1.879
								c0,1.101-0.876,1.885-2.111,1.885C204.939,288.091,204.056,287.307,204.056,286.206z M206.758,286.206
								c0-0.471-0.259-0.71-0.59-0.71c-0.332,0-0.591,0.239-0.591,0.71s0.259,0.716,0.591,0.716
								C206.499,286.922,206.758,286.677,206.758,286.206z"/>
							<path style="fill:#F4D071;" d="M208.554,286.206c0-1.102,0.883-1.879,2.111-1.879c1.234,0,2.111,0.777,2.111,1.879
								c0,1.101-0.876,1.885-2.111,1.885C209.437,288.091,208.554,287.307,208.554,286.206z M211.255,286.206
								c0-0.471-0.259-0.71-0.59-0.71c-0.332,0-0.591,0.239-0.591,0.71s0.259,0.716,0.591,0.716
								C210.997,286.922,211.255,286.677,211.255,286.206z"/>
							<path style="fill:#F4D071;" d="M214.983,286.909l-0.239,0.259v0.856h-1.5v-4.926h1.5v2.35l1.042-1.055h1.772l-1.5,1.573
								l1.62,2.057h-1.812L214.983,286.909z"/>
							<path style="fill:#F4D071;" d="M217.822,283.339c0-0.432,0.352-0.764,0.903-0.764c0.551,0,0.903,0.306,0.903,0.737
								c0,0.458-0.352,0.79-0.903,0.79C218.174,284.101,217.822,283.77,217.822,283.339z M217.974,284.394h1.5v3.631h-1.5V284.394z"
								/>
							<path style="fill:#F4D071;" d="M224.146,285.953v2.071h-1.5v-1.812c0-0.452-0.173-0.624-0.445-0.624
								c-0.305,0-0.564,0.192-0.564,0.73v1.706h-1.5v-3.631h1.427v0.358c0.286-0.285,0.671-0.425,1.095-0.425
								C223.496,284.327,224.146,284.812,224.146,285.953z"/>
							<path style="fill:#F4D071;" d="M228.916,284.394v2.907c0,1.408-0.823,2.078-2.21,2.078c-0.717,0-1.367-0.153-1.819-0.452
								l0.504-1.022c0.285,0.219,0.77,0.358,1.161,0.358c0.617,0,0.863-0.272,0.863-0.756v-0.067
								c-0.226,0.259-0.558,0.385-1.002,0.385c-0.923,0-1.746-0.678-1.746-1.753c0-1.075,0.823-1.746,1.746-1.746
								c0.497,0,0.85,0.153,1.075,0.478v-0.412H228.916z M227.429,286.073c0-0.352-0.266-0.577-0.617-0.577
								c-0.352,0-0.624,0.225-0.624,0.577c0,0.353,0.272,0.585,0.624,0.585C227.163,286.658,227.429,286.425,227.429,286.073z"/>
						</g>
						<rect x="148.661" y="293.155" style="fill:#F4D071;" width="123.477" height="3.157"/>
						<rect x="148.661" y="300.087" style="fill:#F4D071;" width="65.372" height="3.157"/>
						<rect x="148.661" y="326.825" style="fill:#F4D071;" width="123.477" height="3.157"/>
						<rect x="148.661" y="333.757" style="fill:#F4D071;" width="123.477" height="3.157"/>
						<rect x="148.661" y="340.69" style="fill:#F4D071;" width="65.372" height="3.157"/>
						<rect x="148.661" y="367.979" style="fill:#F4D071;" width="123.477" height="3.157"/>
						<rect x="148.661" y="374.912" style="fill:#F4D071;" width="123.477" height="3.157"/>
						<rect x="148.661" y="381.845" style="fill:#F4D071;" width="34.963" height="3.157"/>
					</g>
				</g>
			</g>
			<g>
				<g>
					<path style="fill:#6CA8BF;" d="M623.117,418.361l-79.926,24.009h-51.494l0.561-77.714l-6.685,28.748l-36.525-17.059
						l22.195-65.776c2.51-7.438,7.383-13.852,13.876-18.264l20.912-14.208l13.15,0.948l29.222-15.48l47.995,19.329L623.117,418.361z
						"/>
					<path style="fill:#468097;" d="M492.259,364.656l-5.012-47.042l-1.609,11.238c-1.169,8.161-1.376,16.431-0.618,24.64
						l0.718,7.771c0.337,3.649-0.043,7.329-1.117,10.833l-5.598,18.249l6.551,3.06L492.259,364.656z"/>
					<path style="fill:#468097;" d="M585.834,301.851c-4.575,4.401-9.314,17.314-10.143,21.934l11.412,75.306l-52.994,37.12
						l9.083,6.16l79.926-24.009l-22.533-114.246L585.834,301.851z"/>
					<path style="fill:#468097;" d="M519.182,279.044l0.464,3.924c0.477,4.037,1.682,7.954,3.556,11.561l2.377,4.575l-2.59,5.086
						c-1.61,3.162-1.316,6.96,0.761,9.837l1.828,2.531l8.214,62.551l0.316,63.261l-0.218-0.693
						c-6.369-20.276-7.113-41.902-2.151-62.568l0,0l-0.727-1.768c-7.761-18.89-10.615-39.437-8.297-59.727v0l0,0
						c-5.182-4.322-6.11-11.929-2.119-17.37l0.836-1.139l0,0c-2.728-5.159-3.701-11.065-2.772-16.826L519.182,279.044z"/>
				</g>
				<g>
					<polygon style="fill:#EBA58E;" points="469.663,410.69 480.579,391.071 449.05,376.345 					"/>
					<polygon style="fill:#422C4F;" points="449.05,376.345 480.579,391.071 475.502,400.196 					"/>
				</g>
				<g>
					<path style="fill:#F2C9AD;" d="M433.571,342.384l12.328,1.106l-13.855,54.68c-2.507,9.894,2.89,20.077,12.484,23.558l0,0
						c13.194,4.786,27.056-5.245,26.635-19.274l-1.887-62.913v0c4.799-9.213,6.892-19.595,6.04-29.948l-0.263-3.196
						c-0.168-2.042-1.497-3.805-3.414-4.53l-1.878-0.709c-1.459-0.551-3.087-0.433-4.451,0.324l-9.38,5.204l0.433,0.811
						c1.909,3.574,6.067,5.314,9.952,4.164l0,0l-8.253,7.661L433.571,342.384z"/>
					<g>
						<path style="fill:#422C4F;" d="M465.351,331.18l-23.085-45.47c-0.969-1.909-2.929-3.112-5.07-3.112h-23.591
							c-0.648,0-1.182,0.321-1.519,0.782l-0.004-0.003l-2.62,3.521h3.238l22.3,43.924c0.969,1.909,2.929,3.112,5.07,3.112h21.221
							l1.458,2.492l2.527-3.396l0,0C465.602,332.499,465.671,331.81,465.351,331.18z"/>
						<path style="fill:#454F6B;" d="M461.134,337.329h-23.591c-2.141,0-4.101-1.203-5.07-3.112l-23.085-45.47
							c-0.64-1.261,0.276-2.754,1.69-2.754h23.591c2.141,0,4.101,1.203,5.07,3.112l23.085,45.47
							C463.464,335.837,462.548,337.329,461.134,337.329z"/>
						<path style="fill:#422C4F;" d="M421.366,287.889h-8.744c-0.707,0-1.165,0.746-0.845,1.377l4.468,8.801
							c0.323,0.637,0.976,1.038,1.69,1.038h8.744c0.707,0,1.165-0.746,0.845-1.377l-4.468-8.801
							C422.733,288.29,422.08,287.889,421.366,287.889z"/>
					</g>
					<path style="fill:#F2C9AD;" d="M420.592,325.439l15.104-10.441c1.374-0.949,3.264-0.534,4.114,0.903l6.812,11.528
						c0.529,0.895,0.534,2.006,0.013,2.906l-3.925,6.779c-1.888,3.261-5.371,5.269-9.139,5.269l0,0c-1.154,0-2.23-0.581-2.864-1.545
						L420.592,325.439z"/>
					<polygon style="fill:#EBA58E;" points="426.087,321.641 425.648,320.775 420.592,325.439 					"/>
					<path style="fill:#F2C9AD;" d="M414.986,316.639l10.723-6.692c1.968-1.228,4.565-0.527,5.647,1.525l0,0
						c0.844,1.602,0.506,3.571-0.825,4.798l-9.939,9.168l0,0c-0.793,0.732-2.06,0.541-2.604-0.391l-3.568-6.127
						C413.962,318.132,414.212,317.122,414.986,316.639z"/>
				</g>
				<g>
					<g>
						<g>
							<polygon style="fill:#F2C9AD;" points="506.032,257.877 508.757,269.882 519.182,279.044 539.401,254.087 533.24,229.403 
															"/>
							<path style="fill:#422C4F;" d="M530.983,242.816c0.62-3.903,0.772-7.849,0.72-11.804l-25.671,26.865l2.365,10.417
								c4.923-0.382,9.771-2.691,13.368-6.15C527.001,257.108,529.842,249.991,530.983,242.816z"/>
						</g>
						<polygon style="fill:#94C7D3;" points="519.182,279.044 535.886,296.893 548.404,263.564 539.401,254.087 						"/>
						<polygon style="fill:#94C7D3;" points="508.757,269.882 506.032,278.096 508.757,299.104 519.182,279.044 						"/>
					</g>
					<g>
						<g>
							<path style="fill:#6A3649;" d="M466.596,229.625c-5.05-2.94-8.958-7.788-10.761-13.347
								c-1.802-5.559-1.152-11.934,1.213-17.278c-8.091-2.318-14.497-9.678-15.677-18.011c-1.18-8.333,2.93-17.182,10.059-21.656
								c-0.407,1.299-0.048,3.378,0.768,4.467c0.816,1.089,2,1.85,3.235,2.42c4.337,2.003,9.408,1.847,14.036,0.664
								c4.628-1.183,8.944-3.322,13.325-5.227c4.381-1.905,8.953-3.608,13.725-3.834c8.095-0.383,16.248,3.887,20.545,10.758
								c5.331-1.229,11.798,0.634,15.97,4.174c4.617,3.917,6.907,9.915,8.3,15.807c3.18,13.446,2.576,27.766-1.725,40.897
								c-1.698,5.185-9.05,5.855-14.448,6.651C505.944,238.947,483.385,239.399,466.596,229.625z"/>
							<path style="fill:#8E5A61;" d="M449.655,168.155c1.384,2.963,4.387,4.958,7.572,5.704c3.184,0.747,6.535,0.376,9.71-0.408
								c5.723-1.414,11.023-4.124,16.38-6.584s10.941-4.715,16.822-5.119c5.881-0.404,13.006,2.431,16.926,6.833
								c-4.296-6.871-12.45-11.141-20.545-10.758c-4.772,0.226-9.344,1.929-13.725,3.834c-4.381,1.905-8.697,4.044-13.325,5.227
								c-4.628,1.183-9.699,1.339-14.036-0.664c-1.236-0.57-2.419-1.331-3.235-2.42c-0.816-1.089-1.175-3.169-0.768-4.467
								C448.874,161.371,448.271,165.192,449.655,168.155z"/>
						</g>
						<g>
							<path style="fill:#F2C9AD;" d="M523.915,230.512c-1.841-0.656-3.165-2.28-3.435-4.215l-1.148-8.21
								c-0.294-2.101-1.544-3.947-3.386-4.999l-1.648-0.942c-1.982-1.133-3.27-3.179-3.434-5.456l-1.475-20.523
								c-14.28,8.172-30.515,12.742-46.943,13.293c-2.562,6.225-3.323,13.265-1.766,20.337l4.268,19.386
								c4.061,18.446,22.307,30.107,40.753,26.046l0,0c15.456-3.403,26.142-16.766,26.813-31.86L523.915,230.512z"/>
							<g>
								<path style="fill:#6A3649;" d="M495.729,209.43c-4.337,0.383-7.997,2.799-10.155,6.217l21.242-1.875
									C504.093,210.785,500.067,209.047,495.729,209.43z"/>
							</g>
							<path style="fill:#422C4F;" d="M494.804,222.077c-1.405,0-2.545,1.139-2.545,2.545v1.039c0,1.406,1.139,2.545,2.545,2.545
								c1.406,0,2.545-1.139,2.545-2.545v-1.039C497.349,223.216,496.21,222.077,494.804,222.077z"/>
							<g>
								<path style="fill:#6A3649;" d="M466.208,213.746c-3.118,0.79-5.369,3.51-6.333,7.072l15.269-3.868
									C472.601,214.277,469.326,212.956,466.208,213.746z"/>
							</g>
							<path style="fill:#422C4F;" d="M469.102,226.726c-1.228,0.198-2.063,1.354-1.864,2.582l0.147,0.907
								c0.198,1.228,1.354,2.063,2.582,1.864c1.228-0.198,2.063-1.354,1.864-2.582l-0.147-0.907
								C471.486,227.363,470.33,226.528,469.102,226.726z"/>
							<path style="fill:#EBA58E;" d="M487.067,241.846c-3.438,0.452-6.877,0.905-10.315,1.357c0.661,2.328,2.988,4.281,5.398,4.061
								S486.837,244.255,487.067,241.846z"/>
							<path style="fill:#FFFFFF;" d="M505.956,244.145c-6.398,3.06-13.064,5.56-19.896,7.463c1.631,2.798,4.609,5.054,7.821,5.471
								c3.212,0.417,6.591-0.733,8.882-3.022C505.054,251.768,506.371,247.357,505.956,244.145z"/>
						</g>
						<g>
							<circle style="fill:#F2C9AD;" cx="535.886" cy="225.141" r="11.807"/>
							<circle style="fill:#EBA58E;" cx="535.886" cy="225.141" r="6.573"/>
						</g>
					</g>
				</g>
				<g>
					<path style="fill:#6CA8BF;" d="M596.399,282.893L596.399,282.893c5.505,1.859,9.864,6.125,11.842,11.588l27.987,77.283
						l-42.648,18.955l-12.794-67.289l0.568-4.165C583.155,306.048,588.338,293.52,596.399,282.893L596.399,282.893z"/>
					<g>
						<path style="fill:#F2C9AD;" d="M598.042,388.735l3.593,12.409l-67.526,35.066l-31.803-11.683
							c-1.799-0.661-3.818-0.072-4.98,1.452l-8.873,11.637c-1.993,2.613-1.458,6.353,1.188,8.302l4.19,3.087l0,0
							c-1.851,3.834-0.333,8.444,3.432,10.43l15.324,8.08c2.384,1.257,5.305,0.854,7.259-1.003l6.208-5.897l2.916,0.121
							c5.371,0.224,10.575-1.895,14.262-5.808l0,0l81.528-22.898c12.702-3.568,20.043-16.823,16.328-29.483l-8.553-29.141
							L598.042,388.735z"/>
						<path style="fill:#EBA58E;" d="M493.83,449.004l8.767-15.401l-6.126,5.629c-1.587,1.458-2.097,3.75-1.278,5.743l0,0
							L493.83,449.004z"/>
						<polygon style="fill:#422C4F;" points="632.534,373.405 598.042,388.735 600.827,398.352 633.476,376.615 						"/>
					</g>
				</g>
			</g>
		</g>
	</g>
</g>
</svg>
